<svg width="156" height="123" viewBox="0 0 156 123" fill="none" xmlns="http://www.w3.org/2000/svg">
<path d="M6.5625 76.0781V85.0469H11.0469C11.6615 85.0469 12.2396 84.9323 12.7812 84.7031C13.3229 84.4635 13.7969 84.1406 14.2031 83.7344C14.6094 83.3281 14.9271 82.8542 15.1562 82.3125C15.3958 81.7604 15.5156 81.1771 15.5156 80.5625C15.5156 79.9479 15.3958 79.3698 15.1562 78.8281C14.9271 78.276 14.6094 77.7969 14.2031 77.3906C13.7969 76.9844 13.3229 76.6667 12.7812 76.4375C12.2396 76.1979 11.6615 76.0781 11.0469 76.0781H6.5625ZM6.5625 94H2.07812V71.5938H11.0469C11.8698 71.5938 12.6615 71.7031 13.4219 71.9219C14.1823 72.1302 14.8906 72.4323 15.5469 72.8281C16.2135 73.2135 16.8177 73.6823 17.3594 74.2344C17.9115 74.776 18.3802 75.3802 18.7656 76.0469C19.1615 76.7135 19.4635 77.4271 19.6719 78.1875C19.8906 78.9479 20 79.7396 20 80.5625C20 81.7917 19.7656 82.9531 19.2969 84.0469C18.8281 85.1302 18.1875 86.0781 17.375 86.8906C16.5625 87.7031 15.6094 88.3438 14.5156 88.8125C13.4323 89.2812 12.276 89.5156 11.0469 89.5156H6.5625V94ZM52.5938 82.8906C52.5938 83.9531 52.4531 84.9792 52.1719 85.9688C51.901 86.9479 51.5156 87.8698 51.0156 88.7344C50.5156 89.5885 49.9115 90.3698 49.2031 91.0781C48.4948 91.7865 47.7135 92.3958 46.8594 92.9062C46.0052 93.4062 45.0833 93.7917 44.0938 94.0625C43.1042 94.3438 42.0781 94.4844 41.0156 94.4844C39.9531 94.4844 38.9271 94.3438 37.9375 94.0625C36.9583 93.7917 36.0365 93.4062 35.1719 92.9062C34.3177 92.3958 33.5365 91.7865 32.8281 91.0781C32.1198 90.3698 31.5104 89.5885 31 88.7344C30.5 87.8698 30.1094 86.9479 29.8281 85.9688C29.5573 84.9792 29.4219 83.9531 29.4219 82.8906C29.4219 81.8281 29.5573 80.8021 29.8281 79.8125C30.1094 78.8229 30.5 77.901 31 77.0469C31.5104 76.1927 32.1198 75.4115 32.8281 74.7031C33.5365 73.9948 34.3177 73.3906 35.1719 72.8906C36.0365 72.3906 36.9583 72.0052 37.9375 71.7344C38.9271 71.4531 39.9531 71.3125 41.0156 71.3125C42.0781 71.3125 43.1042 71.4531 44.0938 71.7344C45.0833 72.0052 46.0052 72.3906 46.8594 72.8906C47.7135 73.3906 48.4948 73.9948 49.2031 74.7031C49.9115 75.4115 50.5156 76.1927 51.0156 77.0469C51.5156 77.901 51.901 78.8229 52.1719 79.8125C52.4531 80.8021 52.5938 81.8281 52.5938 82.8906ZM48.1406 82.8906C48.1406 81.9115 47.9531 80.9896 47.5781 80.125C47.2031 79.25 46.6927 78.4948 46.0469 77.8594C45.4115 77.2135 44.6562 76.7031 43.7812 76.3281C42.9167 75.9531 41.9948 75.7656 41.0156 75.7656C40.026 75.7656 39.099 75.9531 38.2344 76.3281C37.3698 76.7031 36.6146 77.2135 35.9688 77.8594C35.3229 78.4948 34.8125 79.25 34.4375 80.125C34.0625 80.9896 33.875 81.9115 33.875 82.8906C33.875 83.8698 34.0625 84.7917 34.4375 85.6562C34.8125 86.5104 35.3229 87.2604 35.9688 87.9062C36.6146 88.5521 37.3698 89.0625 38.2344 89.4375C39.099 89.8125 40.026 90 41.0156 90C41.9948 90 42.9167 89.8125 43.7812 89.4375C44.6562 89.0625 45.4115 88.5521 46.0469 87.9062C46.6927 87.2604 47.2031 86.5104 47.5781 85.6562C47.9531 84.7917 48.1406 83.8698 48.1406 82.8906ZM79.2344 94H63.5469V71.5938H68.0312V89.5156H79.2344V94ZM105.266 94H89.5781V71.5938H94.0625V89.5156H105.266V94ZM120.094 94H115.609V71.5938H120.094V94ZM154.219 82.8906C154.219 83.9531 154.078 84.9792 153.797 85.9688C153.526 86.9479 153.141 87.8698 152.641 88.7344C152.141 89.5885 151.536 90.3698 150.828 91.0781C150.12 91.7865 149.339 92.3958 148.484 92.9062C147.63 93.4062 146.708 93.7917 145.719 94.0625C144.729 94.3438 143.703 94.4844 142.641 94.4844C141.578 94.4844 140.552 94.3438 139.562 94.0625C138.583 93.7917 137.661 93.4062 136.797 92.9062C135.943 92.3958 135.161 91.7865 134.453 91.0781C133.745 90.3698 133.135 89.5885 132.625 88.7344C132.125 87.8698 131.734 86.9479 131.453 85.9688C131.182 84.9792 131.047 83.9531 131.047 82.8906C131.047 81.8281 131.182 80.8021 131.453 79.8125C131.734 78.8229 132.125 77.901 132.625 77.0469C133.135 76.1927 133.745 75.4115 134.453 74.7031C135.161 73.9948 135.943 73.3906 136.797 72.8906C137.661 72.3906 138.583 72.0052 139.562 71.7344C140.552 71.4531 141.578 71.3125 142.641 71.3125C143.703 71.3125 144.729 71.4531 145.719 71.7344C146.708 72.0052 147.63 72.3906 148.484 72.8906C149.339 73.3906 150.12 73.9948 150.828 74.7031C151.536 75.4115 152.141 76.1927 152.641 77.0469C153.141 77.901 153.526 78.8229 153.797 79.8125C154.078 80.8021 154.219 81.8281 154.219 82.8906ZM149.766 82.8906C149.766 81.9115 149.578 80.9896 149.203 80.125C148.828 79.25 148.318 78.4948 147.672 77.8594C147.036 77.2135 146.281 76.7031 145.406 76.3281C144.542 75.9531 143.62 75.7656 142.641 75.7656C141.651 75.7656 140.724 75.9531 139.859 76.3281C138.995 76.7031 138.24 77.2135 137.594 77.8594C136.948 78.4948 136.438 79.25 136.062 80.125C135.688 80.9896 135.5 81.9115 135.5 82.8906C135.5 83.8698 135.688 84.7917 136.062 85.6562C136.438 86.5104 136.948 87.2604 137.594 87.9062C138.24 88.5521 138.995 89.0625 139.859 89.4375C140.724 89.8125 141.651 90 142.641 90C143.62 90 144.542 89.8125 145.406 89.4375C146.281 89.0625 147.036 88.5521 147.672 87.9062C148.318 87.2604 148.828 86.5104 149.203 85.6562C149.578 84.7917 149.766 83.8698 149.766 82.8906Z" fill="#1C4F46"/>
<path d="M47.2664 36.4679C41.0159 33.5047 36.6932 27.1372 36.6932 19.76C36.6932 9.55381 44.967 1.28003 55.1732 1.28003C65.3795 1.28003 73.6532 9.55381 73.6532 19.76C73.6532 27.1372 69.3306 33.5047 63.08 36.4679" stroke="#1C4F46" stroke-width="2" stroke-miterlimit="10" stroke-linecap="round" stroke-linejoin="round"/>
<path d="M73.999 38.24C78.6718 33.4775 81.56 26.9593 81.56 19.76C81.56 12.5607 78.6718 6.04259 73.999 1.28003" stroke="#1C4F46" stroke-width="2" stroke-miterlimit="10" stroke-linecap="round" stroke-linejoin="round"/>
<path d="M36.321 1.28003C31.6482 6.04259 28.76 12.5607 28.76 19.76C28.76 26.9593 31.6482 33.4775 36.321 38.24" stroke="#1C4F46" stroke-width="2" stroke-miterlimit="10" stroke-linecap="round" stroke-linejoin="round"/>
<path fill-rule="evenodd" clip-rule="evenodd" d="M55.16 9.84003C49.681 9.84003 45.24 14.281 45.24 19.76V54.0391C43.5876 52.8084 41.539 52.08 39.32 52.08C33.841 52.08 29.4 56.521 29.4 62V69H33.4V62C33.4 58.7301 36.0501 56.08 39.32 56.08C42.5899 56.08 45.24 58.7301 45.24 62V69H49.24V62V19.76C49.24 16.4901 51.8901 13.84 55.16 13.84C58.4299 13.84 61.08 16.4901 61.08 19.76V51.44C61.08 52.5446 61.9755 53.44 63.08 53.44C64.1846 53.44 65.08 52.5446 65.08 51.44C65.08 48.1701 67.7301 45.52 71 45.52C74.2699 45.52 76.92 48.1701 76.92 51.44V56.72C76.92 57.8246 77.8155 58.72 78.92 58.72C80.0246 58.72 80.92 57.8246 80.92 56.72C80.92 53.4501 83.5701 50.8 86.84 50.8C90.1099 50.8 92.76 53.4501 92.76 56.72V62C92.76 63.1046 93.6555 64 94.76 64C95.8646 64 96.76 63.1046 96.76 62C96.76 58.7301 99.4101 56.08 102.68 56.08C105.95 56.08 108.6 58.7301 108.6 62V69H112.6V62C112.6 56.521 108.159 52.08 102.68 52.08C100.323 52.08 98.1582 52.9018 96.4564 54.2745C95.3673 49.9783 91.4751 46.8 86.84 46.8C84.4831 46.8 82.3182 47.6218 80.6164 48.9945C79.5273 44.6983 75.6351 41.52 71 41.52C68.7811 41.52 66.7324 42.2484 65.08 43.4791V19.76C65.08 14.281 60.6391 9.84003 55.16 9.84003ZM109.608 96H105.257C99.348 109.022 86.2313 118.08 71 118.08C55.7687 118.08 42.652 109.022 36.7427 96H32.3918C38.5433 111.288 53.5118 122.08 71 122.08C88.4883 122.08 103.457 111.288 109.608 96Z" fill="#156045"/>
</svg>
